<?xml version="1.0" encoding="UTF-8"?>
<svg xmlns="http://www.w3.org/2000/svg" width="600" height="180">
  <g fill-rule="nonzero" fill="none">
    <g fill="#1D1C1B">
      <path d="M79.32 7.84a88.75 88.75 0 0 1 50.73 7.98c2.54 1.33 5.45 2.32 7.34 4.58 1.43 1.83.43 4.41-1.02 5.91-1.9 1.7-4.38.32-6.3-.56-12.69-6.54-26.89-10.63-41.24-10.03-11.54.45-22.87 3.87-32.98 9.4-1.62.83-3.25 1.78-5.07 2.1-3.87-.25-5.66-6.14-2.04-8.09A78.9 78.9 0 0 1 79.32 7.84ZM225.04 8.23c3.71-2.67 7.64 3.7 3.66 5.86-3.7 2.5-7.45-3.7-3.66-5.86ZM235.2 8.54c2.28-2.33 6.63.36 5.61 3.4-.44 2.47-3.88 3.52-5.65 1.76-1.53-1.28-1.53-3.94.03-5.16ZM429.02 8.14c2.78-1.88 6.6 1.85 4.72 4.66-1.09 2.3-4.78 2.36-5.96.13a3.42 3.42 0 0 1 1.24-4.79ZM439.2 8.38c2.32-2 6.28.5 5.44 3.45-.34 2.48-3.7 3.62-5.55 1.97-1.72-1.27-1.64-4.2.11-5.42ZM378.63 12.55h5.4c-.04 12.15.04 24.31-.05 36.46.01 4.53-1.88 9.84-6.6 11.32-5.33 1.35-10.9.5-16.34.73-.82 2.93-1.87 5.97-4.2 8.06-2.96 2.91-7.19 3.76-11.14 4.2v-5.07c5.31.24 10.03-3.82 10.17-9.22.52-10.68.04-21.39.25-32.08h5.33c.07 9.57.02 19.14.03 28.71 4.27-.15 8.62.45 12.83-.37 3.55-.97 4.33-5.08 4.3-8.26.05-11.49 0-22.98.02-34.48ZM393.92 12.55l5.34.01c0 16.16.02 32.33 0 48.5h-5.32c-.06-16.17 0-32.34-.02-48.5ZM565.12 45.97c0-11.14-.03-22.28 0-33.42h5.34v35.5c0 3.85-.74 8.2-3.89 10.8-2.42 2.02-5.73 2.17-8.73 2.21-17.78.02-35.57-.06-53.35.04-.82 3.02-1.97 6.11-4.4 8.21-2.95 2.75-7.04 3.57-10.9 4.03l-.07-5.08a9.78 9.78 0 0 0 9.93-7.15c-5.29-.32-11.26.91-15.85-2.39-9.59-7-9-24.1 1.41-30.07 6.55-3.73 16.77-1.59 19.3 6.13 2.1 6.76.7 13.98 1.1 20.94 4.4.02 8.8-.02 13.2.03-4.39-6.19-4.42-15.66 1.05-21.22 5.46-5.47 16.03-4.85 20.25 1.85 3.62 5.82 3.21 13.82-.86 19.32 3.57-.04 7.14 0 10.72-.03 3.03-12.59-4.33-26.85-16.97-30.53 0-1.85 0-3.69.02-5.54 9.36 2.48 17.61 9.54 20.78 18.8 2.03 5.53 2.11 11.51 1.81 17.33 2.65-.1 5.74.34 7.88-1.62 2.17-2.09 2.1-5.36 2.23-8.14m-78.73-12.4c-5.86 4.97-5.87 15.02-.42 20.3 3.75 3.18 9.05 1.4 13.52 1.8-.1-5.85.23-11.7-.16-17.54-.86-5.74-8.64-8.19-12.94-4.56m39.9 2.11c-6.1 2.07-6.69 10.35-4.58 15.5 1.97 5.38 10.57 6.15 13.28 1.04a16.8 16.8 0 0 0 .41-12.82c-1.36-3.55-5.7-4.8-9.1-3.72ZM580.41 12.55l5.3.01c0 16.16.03 32.33-.03 48.5h-5.26c-.02-16.17 0-32.34 0-48.5ZM323.3 15.67c2.26-1.32 5.41.65 5.08 3.3-.02 2.77-3.84 4.2-5.76 2.28-1.8-1.45-1.37-4.6.67-5.58ZM334.21 15.5c4.08-1.86 6.78 5.01 2.54 6.38-4.1 1.91-6.72-4.97-2.54-6.38ZM226.77 19.93c5.4-.07 10.8.02 16.2 0 .05 8.4-.09 16.8.06 25.18.07 4.13 2.01 8.83 6.27 10.13 2.86.78 6.27.88 8.8-.9 2.13-1.7 2.28-4.72 2.41-7.24.07-6.68 0-13.36.02-20.04l5.41.02c-.02 6.96.02 13.92 0 20.88.03 2.63-.5 5.22-1.26 7.73 3.06-.02 6.12 0 9.2 0-.89-5.17-.68-10.82 2.23-15.35 5.27-8.97 20.32-9.18 25.85-.38 3.02 4.62 3.25 10.46 2.26 15.74 4.57-.03 9.15-.04 13.73 0-4.63-6.54-4.82-16.1-.2-22.68 5.94-8.36 20.7-7.96 25.67 1.2 5.22 9.14 1.9 24.01-9.47 26.37-10.65 1.05-21.43.17-32.13.5-5.57 8.58-19.98 8.64-25.55.03-8.86-.27-17.74.23-26.59-.26-5.9-.24-10.53-4.99-12.08-10.46-4.37 6.65-15.34 7.52-20.3 1.12-5.65-7.03-5.88-17.72-1.4-25.38 2.3-3.7 6.44-6.27 10.87-6.2Zm-4.54 6.43c-4.66 4.94-5.02 12.82-2.58 18.9 1.53 4 5.72 7.33 10.18 6.18 4.06-.63 6.37-4.63 7.03-8.37 1.14-6.3.42-12.77.62-19.15-5.04.5-11.2-1.56-15.25 2.44m103.92 6.05c-3.33 1.5-5 5.14-5.46 8.57-.6 4.3-.25 9.12 2.61 12.58 3.9 4.64 12.7 3.88 15.1-1.92a20.22 20.22 0 0 0 .11-15.2c-1.96-4.67-8.03-6.1-12.36-4.03m-39.85 6.36c-3.54 1.08-5.7 4.61-6.23 8.12-.65 4.04-.56 8.54 1.72 12.08 2.6 4.03 8.6 4.78 12.51 2.3 2.68-1.79 3.71-5.13 4.04-8.18.4-4.12.23-8.75-2.54-12.09-2.24-2.76-6.28-3.2-9.5-2.23ZM417.93 30.96c1.41-5.48 5.92-10.56 11.83-10.95 5.78-.24 11.58-.02 17.37-.09.04 8.35-.07 16.71.04 25.06.07 4.2 2 9 6.36 10.28 3.93 1.15 10.1.76 11.1-4.17 1.21-7.96.28-16.08.6-24.1 1.75-.03 3.52-.04 5.3-.06 0 7.61.14 15.22-.07 22.83-.16 4.24-2.03 9.1-6.4 10.53-4.17 1.17-8.67.98-12.86.1-4.8-1.17-8-5.46-9.45-9.96-4.14 6.21-14.14 7.45-19.42 2.05-5.45-5.57-6.37-14.26-4.4-21.52m4.96 1.98c-1.29 5.77-.44 12.73 4.2 16.84 4.06 3.63 11.2 1.65 12.94-3.48 2.7-7.14 1.21-14.94 1.58-22.38-3.63.08-7.28-.23-10.9.17-4.28.72-6.93 4.9-7.82 8.85Z"></path>
      <path d="M87.01 27.28c1.81-.8 3.9-.39 5.82-.49 15.9.12 31.94 4.86 44.7 14.5a81.5 81.5 0 0 1 17.26 17.72c1.91 2.46.15 6.53-2.93 6.84-2.82.57-4.35-2.19-5.83-4.03-13.15-17.08-34.73-27.36-56.32-26.18-4.76.95-7.04-6.35-2.7-8.36ZM70.24 29.65c3.35-1.86 7.42 1.71 6.14 5.28-.98 3.15-4.77 3.11-7.33 4.17-13.78 4.32-24.88 14.6-32.83 26.37-1.37 1.94-2.8 4.32-5.39 4.68-3.3-.15-6-4.08-3.94-7.03 5.8-7.76 11.95-15.48 19.88-21.18 7.2-5.16 15.03-9.55 23.47-12.29ZM35.2 30.32c2.7-2.28 7.27.21 6.9 3.71.15 3.06-3.56 5.48-6.25 3.88-2.87-1.32-3.23-5.77-.66-7.59Z"></path>
      <path d="M84.31 45.8a59.14 59.14 0 0 1 45.2 11.46c12.62 9.6 20.71 24.9 21.3 40.77.24 8.04-.14 16.6-4.23 23.74-3.23 5.84-10.24 9.05-16.78 8.25-3.88-.64-4.72-6.5-1.24-8.26 2.65-.99 5.75-.34 8.23-1.9 4.53-2.56 6.05-8.09 6.42-12.93.76-12.14-2.33-24.8-9.92-34.46-6.23-8.02-15.33-13.56-25.1-16.1-13.68-3.6-28.99-2.7-41.33 4.63-13.9 8.02-22.9 23.13-24.85 38.91-1.39 9.73 0 19.62 2.61 29.02.68 1.98.65 4.5-1.22 5.82-2.3 2-6.27.58-6.8-2.4-4.7-16.4-5.36-34.5 1.15-50.52 7.57-19.27 26.42-32.7 46.56-36.03Z"></path>
      <path d="M95.13 65.41c2.36-1.8 6.13-.17 6.61 2.71.97 3.28-2.73 6.68-5.89 5.15-3.18-1.23-3.58-6.07-.72-7.86ZM250.23 66.47c2-2.1 6.04-.39 5.8 2.52.21 2.56-3.08 4.4-5.17 2.95-2-1-2.3-4.03-.63-5.47ZM261.05 66.26c2.11-1.83 5.76.02 5.55 2.81.1 2.7-3.46 4.4-5.5 2.68-1.84-1.24-1.86-4.23-.05-5.49ZM455.27 66.43c2.02-2.06 6.03-.3 5.75 2.6.2 2.56-3.1 4.35-5.18 2.91-1.98-1.05-2.26-4.07-.57-5.5ZM466.1 66.24c2.37-2.07 6.41.67 5.38 3.64-.57 2.9-5.06 3.47-6.32.8-1.03-1.45-.4-3.46.94-4.44ZM111.16 71.31a4.25 4.25 0 0 1 5.12.22c9.22 7.08 15.17 18.02 16.84 29.46.3 2.64.7 5.44-.22 8-1.83 3.36-7.89 2.18-7.76-1.9a42.45 42.45 0 0 0-14.07-28.3c-2.53-1.74-2.5-5.84.1-7.48ZM158.18 72.45c2.67-1.9 6.7.38 6.61 3.61.4 3.43-3.99 6.02-6.74 3.88-2.59-1.65-2.5-5.94.13-7.49ZM20.05 77.24c2.02-1.2 4.83-.19 5.82 1.9 1.14 1.94-.07 4.05-.57 5.98-1.76 5.16-2.39 10.6-2.8 16.01-.2 2.55-3.18 4.4-5.56 3.44a4.36 4.36 0 0 1-2.92-4.5 71.44 71.44 0 0 1 3.35-18.72c.53-1.55 1.07-3.35 2.68-4.1ZM85.25 84.7c2.4-.62 5-1.52 7.44-.74 3.14 1.17 3.57 5.95.76 7.72-2.46 1.15-5.38.87-7.77 2.25-4.83 2.41-7.5 7.87-7.52 13.14.14 12.77 4.51 25.83 13.6 35.03a52.4 52.4 0 0 0 21.68 13.42c2.37.61 4.68 2.82 3.77 5.47-.35 2.55-3.13 3.72-5.42 3.03-11.92-2.26-22-10.24-29.32-19.62-8.72-11.37-14.35-25.84-12.76-40.33.83-8.75 7.1-16.76 15.54-19.37ZM165.17 86.45c2.88-1.33 6.36 1.42 5.93 4.5-.03 3.1-3.84 5.22-6.47 3.54-3.1-1.66-2.79-6.85.54-8.04ZM104.13 90.3c2.87-1.82 5.91.74 6.9 3.43a33.01 33.01 0 0 1 2.94 9.24c.28 4.21-5.82 6.41-8.18 2.85-1.42-3.1-2.1-6.52-3.4-9.68-1.03-2.05-.3-4.76 1.74-5.85Z"></path>
      <path d="M90.14 103.4c2.31-1.54 6.05-.33 6.13 2.7.57 5.86 1.37 11.86 4.32 17.08a30.61 30.61 0 0 0 27.24 16.22c2.4.18 5.45-.86 7.24 1.31 2.23 2.32.95 6.73-2.26 7.33-15.05 2.4-30.79-5.65-38.63-18.55a40.56 40.56 0 0 1-6.05-20.5c0-1.98.17-4.42 2.01-5.6ZM212.45 114.46h6.1c.01 13.86-.03 27.74.01 41.62-.1 4.7 3.38 8.78 7.63 10.41 5.65 2.21 12.43 1.9 17.67-1.29 3.2-1.89 5.45-5.42 5.33-9.2.06-13.85 0-27.7.02-41.55l6.04.01v41.55c.23 7.76-5.83 14.51-13.02 16.64-8.62 2.68-19.09 1.14-25.5-5.57a15.77 15.77 0 0 1-4.26-11.02c-.04-13.86 0-27.73-.02-41.6ZM287.06 113.58l4.6.03a30807.1 30807.1 0 0 0 23.66 59.65h-6.44c-2.43-6.04-4.94-12.06-7.37-18.1-8.07-.05-16.15-.04-24.22 0-2.5 6.02-5.05 12.03-7.42 18.11h-6.49c7.92-19.89 15.8-39.79 23.68-59.69m2.44 8.38c-3.39 9.2-6.6 18.44-9.9 27.66h19.5c-3.18-9.22-6.47-18.4-9.6-27.66ZM323.1 114.45c11.55.01 23.11.02 34.67 0l.01 6.04H329.2v20.31l28 .01c0 2.01-.02 4.02 0 6.03-9.34-.02-18.67 0-27.99 0-.02 6.81 0 13.64 0 20.46h28.73l.01 5.97H323.1l.01-58.82ZM391.96 114.4c7.58.06 15.17-.08 22.76.05 6.01.2 11.81 3.7 14.55 9.1 5.18 9.37 2.08 23.41-8.34 27.7-7.3 2.65-15.28.94-22.88 1.42-.02 6.86 0 13.73 0 20.6a616.1 616.1 0 0 0-6.09 0V114.4m6.07 6.1c.02 8.77.01 17.53.01 26.3 5.25-.04 10.51.07 15.76-.04 4.28-.1 8.52-2.54 10.5-6.4 3.62-6.93.66-17.43-7.47-19.43-6.2-.94-12.54-.2-18.8-.43ZM432.16 173.27c7.9-19.9 15.8-39.78 23.67-59.68h4.57c7.9 19.9 15.8 39.78 23.67 59.67l-6.4.01c-2.47-6.04-4.95-12.07-7.39-18.1-8.08-.05-16.15-.05-24.23-.02-2.5 6.03-5.05 12.04-7.42 18.12h-6.47m16.2-23.65c6.5.01 13 .02 19.5 0-3.23-9.22-6.36-18.46-9.68-27.64-3.24 9.23-6.54 18.43-9.83 27.64ZM495.43 119.62c7.83-7.12 20.8-7.9 29.4-1.7 3.06 2.22 4.97 5.63 6 9.23-2 .08-3.98.16-5.96.21-4.18-9.15-17.55-9.97-24.77-4.09-4.84 3.7-4.55 12.58 1.32 15.12 8.1 3.43 17.82 1.52 25.38 6.65 7.41 4.5 7.62 15.87 1.81 21.77-8.74 9.03-25.22 9.6-34.07.43-2.39-2.4-3.7-5.59-4.33-8.87l6.08-.16c3.3 11.08 19.41 12.46 27.12 5.3 4.26-3.58 4.5-11.65-.85-14.3-8.08-3.82-17.92-1.42-25.65-6.35-7.9-4.8-8.1-17.26-1.48-23.24ZM547.7 119.9c7.5-7.18 20.05-8.14 28.75-2.6 3.53 2.2 5.78 5.9 6.9 9.84-1.98.1-3.95.17-5.9.25-4.3-9.25-17.92-10.05-25.1-3.88-4.68 3.87-4.09 12.7 1.86 15.02 8.16 3.22 17.9 1.44 25.4 6.71 6.8 4.4 7.26 14.84 2.21 20.76-6.28 7.42-17.38 9.45-26.38 6.53-6.37-2-11.75-7.4-12.7-14.15 2-.08 4-.2 6-.07 3.76 11.48 21.1 12.57 28.32 3.94 3.27-3.9 2.71-10.99-2.27-13.2-7.93-3.5-17.36-1.4-24.97-5.95-8.14-4.5-8.65-17.08-2.13-23.2Z"></path>
      <path d="M114 115.21c3.3-1.53 7.04 2.44 5.61 5.71-.77 2.81-4.6 3.98-6.8 2.08-2.67-1.99-2-6.77 1.18-7.79ZM145.2 133.45c3-2.27 7.53 1.05 6.6 4.57-.39 3.03-4.3 4.8-6.75 2.88-2.52-1.66-2.46-5.9.14-7.45ZM44.14 143.37c2.71-1.8 6.65.48 6.56 3.7.32 3.34-3.8 5.92-6.62 3.95-2.75-1.6-2.67-6.07.06-7.65Z"></path>
    </g>
    <path d="M79.27 66.65c1.78-.6 4.08-1.17 5.58.33 2.55 2 1.75 6.68-1.46 7.5-9.6 3-17.76 10.34-21.43 19.74-2.87 6.92-2.74 14.63-1.87 21.95 1 8.6 4 16.85 8.16 24.4 2.05 2.93-1 7.33-4.44 6.51-3.44-.76-4.15-4.82-5.63-7.49-5.47-13.75-9.65-29.15-5.67-43.86 3.41-13.3 13.6-24.8 26.76-29.08Z" fill="#1EAB75"></path>
    <path d="M71.21 152.33c1.92-1.6 4.73-.85 6.2 1a81.71 81.71 0 0 0 10.25 8.77c3.38 2.16 1.04 8.08-2.92 7.37-5.5-2.05-10.3-5.89-14-10.4-1.75-1.89-1.66-5.2.47-6.74Z" fill="#E82026"></path>
  </g>
</svg>
